<svg width="20" height="22" viewBox="0 0 20 22" fill="none" xmlns="http://www.w3.org/2000/svg">
<path d="M17 10.0664H3C1.89543 10.0664 1 10.9021 1 11.9331V18.4664C1 19.4973 1.89543 20.333 3 20.333H17C18.1046 20.333 19 19.4973 19 18.4664V11.9331C19 10.9021 18.1046 10.0664 17 10.0664Z" stroke="#DB3434" stroke-width="2" stroke-linecap="round" stroke-linejoin="round"/>
<path d="M5 10.0669V6.33363C5 5.09596 5.52678 3.90899 6.46447 3.03382C7.40215 2.15865 8.67392 1.66699 10 1.66699C11.3261 1.66699 12.5979 2.15865 13.5355 3.03382C14.4732 3.90899 15 5.09596 15 6.33363V10.0669" stroke="#DB3434" stroke-width="2" stroke-linecap="round" stroke-linejoin="round"/>
</svg>
