<svg width="26" height="23" viewBox="0 0 26 23" fill="none" xmlns="http://www.w3.org/2000/svg">
<path d="M16.9972 1.27051H1V15.5846H16.9972V1.27051Z" stroke="#DB3434" stroke-width="2" stroke-linecap="round" stroke-linejoin="round"/>
<path d="M16.998 6.77588H21.264L24.4634 10.0791V15.5846H16.998V6.77588Z" stroke="#DB3434" stroke-width="2" stroke-linecap="round" stroke-linejoin="round"/>
<path d="M5.79902 21.0899C7.27152 21.0899 8.46522 19.8575 8.46522 18.3372C8.46522 16.8169 7.27152 15.5845 5.79902 15.5845C4.32651 15.5845 3.13281 16.8169 3.13281 18.3372C3.13281 19.8575 4.32651 21.0899 5.79902 21.0899Z" stroke="#DB3434" stroke-width="2" stroke-linecap="round" stroke-linejoin="round"/>
<path d="M19.6643 21.0899C21.1368 21.0899 22.3305 19.8575 22.3305 18.3372C22.3305 16.8169 21.1368 15.5845 19.6643 15.5845C18.1917 15.5845 16.998 16.8169 16.998 18.3372C16.998 19.8575 18.1917 21.0899 19.6643 21.0899Z" stroke="#DB3434" stroke-width="2" stroke-linecap="round" stroke-linejoin="round"/>
</svg>
