<svg width="500" height="500" viewBox="0 0 500 500" fill="none" xmlns="http://www.w3.org/2000/svg">
<path d="M362 225C314 196 244 201 195 248M201 338C207 216 144 236 136 142M101 103C107.405 111.868 115.326 116.053 123 116.857M144 110C138.545 114.925 130.904 117.684 123 116.857M417 280C478.922 413.831 333.369 548.659 195.524 445.393C195.184 445.139 194.882 444.836 194.591 444.527C181.271 430.372 100.56 451.721 60.0002 426C30.751 412.042 9.90749 362.104 22.5021 322M47.0001 287C34.5425 296.468 26.6813 308.692 22.5021 322M22.5021 322C19.0016 198.62 22.4889 66.4968 89.6207 52.08C89.8693 52.0266 90.13 51.9515 90.3683 51.8626C214.909 5.43552 228.768 14.8425 236.786 30.5755C236.929 30.8562 237.1 31.1302 237.291 31.3808C266.125 69.2071 276.382 97.0044 266 116.857C251.998 143.632 206.412 155.955 173.677 158.939C173.223 158.981 172.774 158.959 172.327 158.869C150.925 154.546 131.091 135.774 123 116.857M218 388C261 432 331 431 371 388M392.447 17H445.52C449.083 17 451.502 20.6198 450.14 23.9118L431.86 68.0882C430.498 71.3802 432.917 75 436.48 75H472.837C476.987 75 479.33 79.7638 476.797 83.0514L395.562 188.501C392.175 192.898 385.215 189.326 386.813 184.01L405.064 123.296C406.029 120.088 403.626 116.857 400.276 116.857H358.253C354.751 116.857 352.334 113.351 353.579 110.078L387.774 20.2217C388.512 18.282 390.372 17 392.447 17Z" stroke="#FF0000" stroke-width="18" stroke-linecap="round"/>
</svg>
