<svg width="24" height="20" viewBox="0 0 24 20" fill="none" xmlns="http://www.w3.org/2000/svg">
<path d="M15.8338 1H1V14H15.8338V1Z" stroke="#FBEB5B" stroke-width="2" stroke-linecap="round" stroke-linejoin="round"/>
<path d="M15.834 6H19.7897L22.7564 9V14H15.834V6Z" stroke="#FBEB5B" stroke-width="2" stroke-linecap="round" stroke-linejoin="round"/>
<path d="M5.44886 19C6.81428 19 7.92116 17.8807 7.92116 16.5C7.92116 15.1193 6.81428 14 5.44886 14C4.08345 14 2.97656 15.1193 2.97656 16.5C2.97656 17.8807 4.08345 19 5.44886 19Z" stroke="#FBEB5B" stroke-width="2" stroke-linecap="round" stroke-linejoin="round"/>
<path d="M18.3063 19C19.6717 19 20.7786 17.8807 20.7786 16.5C20.7786 15.1193 19.6717 14 18.3063 14C16.9409 14 15.834 15.1193 15.834 16.5C15.834 17.8807 16.9409 19 18.3063 19Z" stroke="#FBEB5B" stroke-width="2" stroke-linecap="round" stroke-linejoin="round"/>
</svg>
