<svg width="542" height="500" viewBox="0 0 542 500" fill="none" xmlns="http://www.w3.org/2000/svg">
<path d="M87.5144 170.253C88.0128 169.494 88.9921 167.38 87.5324 163.911C87.3831 163.556 87.1027 163.155 87.1493 162.773C87.4746 160.107 92.0364 148.504 93.0532 140.013C96.5118 111.131 103.06 103.465 113.486 86.1236C113.897 85.4408 114.908 85.488 115.263 86.2016C121.565 98.8912 124.846 101.53 130.048 101.414C138.397 101.065 141.979 102.816 147.171 107.643C147.313 107.775 147.494 107.866 147.685 107.898C154.141 108.955 156.643 105.971 159.868 97.9878C160.014 97.6271 160.359 97.3884 160.741 97.3152C167.518 96.0169 166.449 80.1965 165.309 54.7722C164.704 45.9382 147.898 43.2577 131.204 41.9055C116.117 40.6835 101.053 40.146 99.4505 44.994C99.4227 45.0781 99.3882 45.1616 99.3431 45.2378C56.0193 118.353 19.1178 167.953 27.1559 197.913C29.1235 205.821 43.8841 222.802 64.0788 234.862C64.1266 234.891 64.172 234.923 64.2145 234.959C94.9765 261.096 133.942 282.437 150.171 267.729C150.564 267.373 151.169 267.342 151.541 267.721C156.355 272.623 159.814 283.06 160.089 283.904C160.102 283.945 160.111 283.981 160.118 284.023C165.654 314.226 172.63 322.762 186.523 334.475C186.636 334.57 186.73 334.695 186.792 334.83C199.258 362.148 201.455 372.551 202.882 388.5L205.171 484.024C205.184 484.567 205.628 485 206.17 485H335.434C335.977 485 336.421 484.567 336.434 484.024L338.723 388.5C341.286 369.437 345.546 357.986 354.834 337.2C354.882 337.092 354.953 336.988 355.036 336.904C370.949 320.697 377.231 310.545 380.92 289.588C381.965 279.28 383.762 274.159 390.195 267.625C390.516 267.298 391.025 267.243 391.423 267.47C414.385 280.586 448.84 258.786 478.032 234.101C500.07 219.95 516.322 201.318 515.136 195.856C515.085 195.619 515.066 195.394 515.135 195.162C520.293 177.655 481.303 105.118 451.442 57.1842C445.984 46.6013 442.653 42.7068 435.835 41.9051C409.454 39.4725 397.516 40.3146 382.846 46.6469C382.721 46.7012 382.582 46.7273 382.446 46.739C374.025 47.4601 371.787 91.7818 380.67 97.2509C380.834 97.3516 380.974 97.4868 381.069 97.6535C387.662 109.175 390.326 110.218 394.215 107.847L404.432 102.319C404.556 102.252 404.696 102.212 404.836 102.201C417.114 101.219 421.872 96.0097 427.534 83.131C427.864 82.3804 428.926 82.3354 429.339 83.0442C455.021 127.198 443.648 140.118 455.266 160.535C455.404 160.778 455.44 161.074 455.362 161.342C454.069 165.771 454.327 168.821 455.004 170.042C455.214 170.422 455.44 170.892 455.346 171.316C451.812 187.325 424.827 159.955 399.34 178.248C399.037 178.466 398.621 178.507 398.285 178.345C369.051 164.247 354.18 166.861 331.542 191.914C331.335 192.143 331.023 192.27 330.714 192.25C319.15 191.511 313.838 194.7 306.598 202.756C306.033 203.385 304.975 203.039 304.837 202.205C295.673 146.953 306.965 162.788 312.682 124.123C312.7 124.001 312.741 123.878 312.801 123.77C320.916 109.311 324.409 81.5176 316.083 83.7791C315.327 83.9844 314.443 83.4801 314.433 82.6969C313.337 -2.98069 235.335 -19.9301 227.836 83.1169C227.786 83.7928 227.074 84.2531 226.4 84.1812C217.011 83.1798 221.589 116.82 229.153 123.659C229.357 123.844 229.486 124.099 229.511 124.373C232.465 157.255 247.572 150.076 237.91 202.501C237.767 203.279 236.805 203.626 236.222 203.091C227.703 195.27 222.053 192.993 211.96 192.311C211.701 192.293 211.45 192.172 211.275 191.98C188.821 167.488 173.785 165.828 144.419 178.4C144.112 178.531 143.749 178.501 143.466 178.325C120.04 163.758 87.9262 184.529 87.2827 170.995C87.2705 170.737 87.3728 170.468 87.5144 170.253Z" stroke="#FF0000" stroke-width="18" stroke-linecap="round"/>
<path d="M179.783 241.188C181.647 229.01 185.286 221.858 189.385 215.862C190.424 214.342 192.768 215.029 192.945 216.862C196.461 253.102 204.323 265.47 221.69 276.413C223.033 277.259 222.936 279.241 221.416 279.699C200.151 286.106 179.91 254.549 179.761 241.483C179.76 241.383 179.768 241.287 179.783 241.188Z" fill="white"/>
<path d="M320.83 276.27C339.552 264.727 345.901 251.753 347.394 218.822C348.192 201.198 361.74 226.666 361.844 241.171C361.845 241.285 361.835 241.398 361.815 241.51C356.051 274.625 333.88 281.865 321.209 279.476C319.58 279.169 319.419 277.14 320.83 276.27Z" fill="white"/>
<path d="M184.761 338.13C171.31 326.998 164.465 318.115 157.504 287.537C157.419 287.166 157.443 286.753 157.586 286.4C160.996 277.994 165.17 293.261 180.299 293.391C180.426 293.392 180.561 293.379 180.687 293.355C198.356 289.99 204.066 296.396 210.829 313.531C211.022 314.019 211.41 314.426 211.888 314.642C236.191 325.635 243.365 332.038 244.027 342.327C244.091 343.316 243.351 344.159 242.371 344.313C224.32 347.138 221.248 350.849 220.38 358.529C215.755 377.025 255.862 381.85 252.75 393.913C244.599 425.509 236.298 429.629 221.145 440.028C220.662 440.359 220.344 440.904 220.282 441.486C217.191 470.824 213.351 480.52 205.192 485.691C203.961 486.472 202.431 485.534 202.405 484.076L200.726 389.892C200.196 375.288 196.884 364.18 185.313 338.851C185.187 338.575 184.994 338.323 184.761 338.13Z" fill="white"/>
<path d="M357.751 338.13C371.202 326.998 378.047 318.115 385.008 287.537C385.093 287.166 385.069 286.753 384.926 286.4C381.516 277.994 377.342 293.261 362.213 293.391C362.085 293.392 361.95 293.379 361.825 293.355C344.156 289.99 338.446 296.396 331.682 313.531C331.49 314.019 331.101 314.426 330.624 314.642C306.321 325.635 299.147 332.038 298.484 342.327C298.421 343.316 299.161 344.159 300.141 344.313C318.192 347.138 321.264 350.849 322.132 358.529C326.757 377.025 286.65 381.85 289.762 393.913C297.913 425.509 306.214 429.629 321.367 440.028C321.849 440.359 322.168 440.904 322.229 441.486C325.321 470.824 329.161 480.52 337.32 485.691C338.551 486.472 340.081 485.534 340.107 484.076L341.786 389.892C342.316 375.288 345.628 364.18 357.198 338.851C357.324 338.575 357.518 338.323 357.751 338.13Z" fill="white"/>
<path d="M67.6193 201.934C48.5438 217.213 26.0002 189.872 26 201.934C30.6688 209.728 45.6536 225.255 67.6193 239.73C97.0997 265.463 134.195 282.428 149.702 269.484C155.135 264.949 142.186 262.546 143.968 246.918C144.135 245.447 142.806 244.136 141.327 244.199C132.294 244.584 122.561 237.733 117.909 227.667C107.505 218.822 117.909 237.317 113.863 243.751C93.6314 254.205 84.3827 227.668 72.8217 223.647C62.4169 223.647 72.8217 197.767 67.6193 201.934Z" fill="white"/>
<path d="M473.593 201.934C492.668 217.213 515.212 189.872 515.212 201.934C510.543 209.728 495.558 225.255 473.593 239.73C444.112 265.463 407.017 282.428 391.51 269.484C386.077 264.949 399.026 262.546 397.244 246.918C397.077 245.447 398.406 244.136 399.885 244.199C408.918 244.584 418.651 237.733 423.303 227.667C433.707 218.822 423.303 237.317 427.349 243.751C447.581 254.205 456.829 227.668 468.39 223.647C478.795 223.647 468.39 197.767 473.593 201.934Z" fill="white"/>
</svg>
