<svg width="21" height="22" viewBox="0 0 21 22" fill="none" xmlns="http://www.w3.org/2000/svg">
<path d="M17.434 10H3.58917C2.49684 10 1.61133 10.8954 1.61133 12V19C1.61133 20.1046 2.49684 21 3.58917 21H17.434C18.5264 21 19.4119 20.1046 19.4119 19V12C19.4119 10.8954 18.5264 10 17.434 10Z" stroke="#FBEB5B" stroke-width="2" stroke-linecap="round" stroke-linejoin="round"/>
<path d="M5.56641 10V6C5.56641 4.67392 6.08735 3.40215 7.01465 2.46447C7.94194 1.52678 9.19962 1 10.511 1C11.8224 1 13.0801 1.52678 14.0074 2.46447C14.9347 3.40215 15.4556 4.67392 15.4556 6V10" stroke="#FBEB5B" stroke-width="2" stroke-linecap="round" stroke-linejoin="round"/>
</svg>
