<svg width="500" height="500" viewBox="0 0 500 500" fill="none" xmlns="http://www.w3.org/2000/svg">
<path d="M365 114.89C321.667 144.652 280.257 196.454 229.5 269C191.591 233.441 171.154 212.434 117.5 197.5C96.941 192.809 94.2679 195.87 103 210C163.485 267.917 187.364 303.237 225.5 367.5C234.482 377.608 239.518 376.252 248.5 367.5C321.735 221.959 368.977 157.267 463.5 70C467.646 62.7686 467.09 60.623 460.5 60.5C428.456 65.8472 398.69 83.7394 365 114.89Z" fill="#5FB641"/>
<path d="M366 84.4999L382.5 71.9999C310.332 21.3988 262.231 15.7093 164 42.5C114.626 67.0371 92.7891 85.3463 63.5 125.5C25.0409 191.479 27.0331 218.447 26 268.5C37.5711 342.675 55.008 370.07 93 410C141.651 453.398 175.59 465.131 242.5 474C303.381 473.815 334.03 464.629 382.5 431.5C442.811 376.041 463.234 340.494 474 268.5C476.519 211.036 468.526 179.694 436.5 125.5L419.5 143.5C443.52 180.129 449.894 207.581 449 268.5C437.734 335.321 421.073 361.494 382.5 398.5C335.183 438.683 303.089 446.029 242.5 450C170.717 441.885 137.388 426.206 93 374C54.0489 318.135 44.8649 282.409 53.5 210C76.8547 133.013 102.348 103.581 164 68.9999C245.693 37.8543 289.688 44.3493 366 84.4999Z" fill="#5FB641"/>
</svg>
