<?xml version="1.0" encoding="utf-8"?>
<!-- Generator: Adobe Illustrator 28.3.0, SVG Export Plug-In . SVG Version: 6.00 Build 0)  -->
<svg version="1.1" id="Camada_1" xmlns="http://www.w3.org/2000/svg" xmlns:xlink="http://www.w3.org/1999/xlink" x="0px" y="0px"
	 width="688px" height="500px" viewBox="0 0 688 500" style="enable-background:new 0 0 688 500;" xml:space="preserve">
<style type="text/css">
	.st0{fill-rule:evenodd;clip-rule:evenodd;fill:#FFFFFF;}
	.st1{fill:#FFFFFF;}
	.st2{fill:#D6242E;}
</style>
<path class="st0" d="M492.9,187.3l-33,130.5c-0.5,1.9,1,3.7,2.9,3.7h28.3c1.4,0,2.6-0.9,2.9-2.2l7.9-30c0.3-1,1.2-1.8,2.3-1.8
	c1.2,0,2.3,0.9,2.4,2.2l2.6,29.1c0.1,1.5,1.4,2.7,3,2.7h28.4c1.8,0,3.2-1.5,3-3.3l-4.8-44.4c-0.2-1.8,1.2-3.4,2.8-4.3
	c15.7-9.3,41.3-80.8,4.9-84.5h-50.7C494.5,185,493.3,185.9,492.9,187.3z M520.7,218.1c0.5-1.9,2.1-3.1,4-3.1l0,0
	c2.7,0,4.7,2.5,4,5.1l-6.5,27.5c-0.5,2-2.2,3.3-4.2,3.3l0,0c-2.8,0-4.9-2.7-4.2-5.4L520.7,218.1z"/>
<path class="st1" d="M617.6,185h-28.3c-1.4,0-2.6,0.9-2.9,2.3l-33,130c-0.5,1.9,1,3.7,2.9,3.7h28.3c1.4,0,2.6-0.9,2.9-2.3l33-130
	C621,186.8,619.6,185,617.6,185z"/>
<path class="st1" d="M129.3,94.8L88.1,263.8c-0.2,0.9,0.8,1.6,1.6,1L155,217c3.9-3.2,5.7-5.7,6-15c-0.2-8.2-0.1-12.6,4.8-14.4
	c0.1-0.1,0.3-0.1,0.4-0.2c2.8-2.1,4.6,11.8,5.1,16.9c0.1,0.8,1,1.2,1.6,0.7l41.5-31.5c0.3-0.3,0.5-0.7,0.3-1.1l-27.5-77.6
	c-0.1-0.4-0.5-0.7-0.9-0.7h-56C129.8,94,129.4,94.3,129.3,94.8z"/>
<path class="st1" d="M270.3,96c-7,20.5-13.2,32.5-21.5,45.1c-1.9,2.8,1.7,6.4,4.4,4.4L317,99.4c2.4-1.7,1.2-5.4-1.8-5.4h-42.1
	C271.9,94,270.7,94.8,270.3,96z"/>
<path class="st1" d="M351.1,184.5h-28.8c-1.4,0-2.6,1-2.9,2.3l-27.9,116.4c-0.1,0.2-0.1,0.5-0.1,0.7c0.5,27.5,57.1,30,76.2,0
	c0.2-0.3,0.3-0.5,0.4-0.8l29.4-114.8c0.5-1.9-0.9-3.7-2.9-3.7h-28.3c-1.4,0-2.6,0.9-2.9,2.3l-27.2,105.7c-0.2,0.7-0.6,1.2-1.1,1.6
	c-3.1,2.2-5,2.6-7.2,0.5c-0.7-0.7-0.8-1.6-0.6-2.5L354,188.2C354.5,186.3,353.1,184.5,351.1,184.5z"/>
<path class="st1" d="M476.5,211.2l5.1-21.5c0.4-1.9-1-3.7-2.9-3.7h-67.4c-1.4,0-2.6,0.9-2.9,2.3l-5.5,21.5c-0.5,1.9,1,3.7,2.9,3.7
	h11.3c2,0,3.4,1.8,2.9,3.7l-25.6,101c-0.5,1.9,1,3.7,2.9,3.7h30.3c1.4,0,2.6-0.9,2.9-2.2l27.3-104c0.3-1.3,1.5-2.2,2.9-2.2h12.8
	C475,213.5,476.2,212.5,476.5,211.2z"/>
<path class="st2" d="M217.9,185.8L18.7,332.1c-0.9,0.7-0.2,2.1,0.9,1.8c44.9-13.1,70.1-15.2,111.6-12.9c0.5,0,0.9-0.3,1-0.8
	l17.3-72.1c0-0.1,0-0.1,0.1-0.2c9.5-18.8,29.7-29.8,29.9-19.1c0,0.1,0,0.2,0.1,0.3l32.7,91.2c0.1,0.4,0.5,0.7,0.9,0.7h55.5
	c0.5,0,0.9-0.3,1-0.7L315,149.5c5-19.9,14.4-34,36.6-58.5c0.8-0.9-0.4-2.2-1.4-1.5l-98.5,70.9c-0.2,0.1-0.3,0.4-0.4,0.6l-15.2,67.3
	c-0.2,1-1.6,1.1-1.9,0.1l-14.9-42C219.2,185.6,218.5,185.4,217.9,185.8z"/>
<path class="st1" d="M50.3,363.3c0.1-2.7-0.7-4.9-2.4-6.4c-1.7-1.5-4.1-2.3-7.2-2.3c-2.2,0-4.1,0.4-5.9,1.1
	c-1.8,0.7-3.2,1.8-4.4,3.1c-1.1,1.3-1.8,2.8-2.1,4.5c-0.2,1.2-0.1,2.3,0.3,3.2c0.4,0.9,1,1.7,1.8,2.4c0.8,0.7,1.7,1.2,2.7,1.7
	c1,0.5,2.1,0.9,3.1,1.2l4.7,1.4c1.4,0.4,2.8,0.9,4.2,1.6c1.4,0.6,2.6,1.4,3.7,2.4c1.1,1,1.9,2.1,2.4,3.5c0.5,1.4,0.6,3.1,0.3,5
	c-0.4,2.5-1.4,4.8-3,6.8c-1.6,2-3.7,3.5-6.3,4.7c-2.6,1.2-5.6,1.7-9,1.7c-3.2,0-5.8-0.5-8-1.6c-2.2-1.1-3.8-2.5-4.8-4.4
	c-1-1.9-1.4-4-1.2-6.5h4.4c-0.2,1.8,0.2,3.4,1,4.7c0.9,1.3,2.1,2.2,3.7,2.9c1.6,0.7,3.5,1,5.5,1c2.3,0,4.4-0.4,6.4-1.2
	c1.9-0.8,3.5-1.9,4.8-3.3c1.3-1.4,2.1-3,2.4-4.9c0.3-1.6,0.1-2.9-0.6-4c-0.6-1.1-1.6-2-3-2.7c-1.3-0.7-2.9-1.4-4.8-2l-5.3-1.6
	c-3.5-1.1-6.1-2.6-7.8-4.5c-1.7-1.9-2.3-4.4-1.8-7.4c0.4-2.5,1.5-4.7,3.1-6.6c1.7-1.9,3.7-3.4,6.2-4.5c2.5-1.1,5.1-1.6,8-1.6
	c2.9,0,5.4,0.5,7.4,1.6c2,1.1,3.6,2.6,4.5,4.5c1,1.9,1.4,4,1.1,6.5H50.3z M116.2,351.5h4.2l-5.1,30.8c-0.5,3.2-1.7,6-3.6,8.5
	c-1.9,2.5-4.3,4.4-7.2,5.9c-2.9,1.4-6.1,2.1-9.6,2.1c-3.5,0-6.4-0.7-8.8-2.2c-2.4-1.4-4.2-3.4-5.2-5.9c-1.1-2.5-1.3-5.3-0.8-8.5
	l5.1-30.8h4.2L84.4,382c-0.4,2.5-0.2,4.7,0.6,6.6c0.8,1.9,2.1,3.4,3.9,4.5c1.8,1.1,4.1,1.7,6.8,1.7c2.7,0,5.2-0.6,7.4-1.7
	c2.2-1.1,4-2.6,5.5-4.5c1.4-1.9,2.4-4.1,2.8-6.6L116.2,351.5z M143,398l7.7-46.5h15c3.3,0,6,0.6,8,1.9c2,1.3,3.4,3,4.2,5.1
	c0.8,2.2,0.9,4.6,0.5,7.3c-0.4,2.7-1.4,5.1-2.9,7.3c-1.5,2.2-3.4,3.9-5.9,5.2c-2.4,1.3-5.3,1.9-8.5,1.9h-11.8l0.6-3.8h11.7
	c2.4,0,4.5-0.5,6.3-1.4c1.8-0.9,3.2-2.2,4.2-3.8c1.1-1.6,1.8-3.4,2.1-5.4c0.3-2,0.2-3.9-0.3-5.5c-0.5-1.6-1.5-2.8-3-3.7
	c-1.5-0.9-3.4-1.4-5.9-1.4h-10.7l-7.1,42.7H143z M200.9,398l7.7-46.5h4.2l-7.1,42.7H228l-0.6,3.8H200.9z M254.8,398l7.7-46.5h27
	l-0.6,3.8h-22.8l-2.9,17.5h21.3l-0.6,3.8h-21.3l-2.9,17.6h23.2l-0.6,3.8H254.8z M318.5,351.5h4.9l10.2,40.5h0.4l23.6-40.5h4.9
	l-7.7,46.5h-4l6.3-37.6h-0.4l-22,37.6h-3.9l-9.4-37.6H321l-6.3,37.6h-4L318.5,351.5z M385,398l7.7-46.5h27l-0.6,3.8h-22.8l-2.9,17.5
	h21.3l-0.6,3.8h-21.3l-2.9,17.6h23.2l-0.6,3.8H385z M484.9,351.5l-7.7,46.5h-4.1l-21-39h-0.4l-6.5,39H441l7.7-46.5h4.1l21.1,39h0.4
	l6.5-39H484.9z M511.8,355.3l0.6-3.8h33.8l-0.6,3.8h-14.8l-7.1,42.7h-4.2l7.1-42.7H511.8z M606,375c-0.8,4.8-2.3,9-4.6,12.5
	c-2.3,3.5-5.1,6.3-8.4,8.2c-3.3,1.9-6.9,2.9-10.8,2.9c-4,0-7.3-1-10.1-3c-2.7-2-4.7-4.8-5.8-8.4c-1.1-3.6-1.3-7.9-0.5-12.8
	c0.8-4.8,2.3-9,4.6-12.5c2.3-3.5,5.1-6.3,8.4-8.2c3.3-1.9,6.9-2.9,10.8-2.9c3.9,0,7.3,1,10,3c2.7,2,4.7,4.8,5.8,8.4
	C606.6,365.8,606.8,370.1,606,375z M601.9,374.5c0.7-4.2,0.6-7.7-0.3-10.6c-0.9-2.9-2.3-5.2-4.5-6.7c-2.1-1.6-4.7-2.3-7.7-2.3
	c-3.1,0-6,0.8-8.8,2.4c-2.7,1.6-5.1,3.9-7,6.9c-1.9,3-3.2,6.6-4,10.8c-0.7,4.1-0.6,7.7,0.3,10.6c0.9,2.9,2.3,5.2,4.5,6.7
	c2.1,1.5,4.7,2.3,7.7,2.3c3.1,0,6-0.8,8.8-2.4c2.7-1.6,5-3.9,7-6.9C599.9,382.3,601.2,378.7,601.9,374.5z M661.4,363.3
	c0.1-2.7-0.7-4.9-2.4-6.4c-1.7-1.5-4.1-2.3-7.2-2.3c-2.2,0-4.1,0.4-5.9,1.1c-1.8,0.7-3.2,1.8-4.4,3.1c-1.1,1.3-1.8,2.8-2.1,4.5
	c-0.2,1.2-0.1,2.3,0.3,3.2c0.4,0.9,1,1.7,1.8,2.4c0.8,0.7,1.7,1.2,2.7,1.7c1,0.5,2.1,0.9,3.1,1.2l4.7,1.4c1.4,0.4,2.8,0.9,4.2,1.6
	c1.4,0.6,2.6,1.4,3.7,2.4c1.1,1,1.9,2.1,2.4,3.5c0.5,1.4,0.6,3.1,0.3,5c-0.4,2.5-1.4,4.8-3,6.8c-1.6,2-3.7,3.5-6.3,4.7
	c-2.6,1.2-5.6,1.7-9,1.7c-3.2,0-5.8-0.5-8-1.6c-2.2-1.1-3.8-2.5-4.8-4.4c-1-1.9-1.4-4-1.2-6.5h4.4c-0.2,1.8,0.2,3.4,1,4.7
	c0.9,1.3,2.1,2.2,3.7,2.9c1.6,0.7,3.5,1,5.5,1c2.3,0,4.4-0.4,6.4-1.2c1.9-0.8,3.5-1.9,4.8-3.3c1.3-1.4,2.1-3,2.4-4.9
	c0.3-1.6,0.1-2.9-0.6-4c-0.6-1.1-1.6-2-3-2.7c-1.3-0.7-2.9-1.4-4.8-2l-5.3-1.6c-3.5-1.1-6.1-2.6-7.8-4.5c-1.7-1.9-2.3-4.4-1.8-7.4
	c0.4-2.5,1.5-4.7,3.1-6.6c1.7-1.9,3.7-3.4,6.2-4.5c2.5-1.1,5.1-1.6,8-1.6c2.9,0,5.4,0.5,7.4,1.6c2,1.1,3.6,2.6,4.5,4.5
	c1,1.9,1.4,4,1.1,6.5H661.4z"/>
</svg>
