<svg width="542" height="500" viewBox="0 0 542 500" fill="none" xmlns="http://www.w3.org/2000/svg">
<path d="M42 487.5V339H95H105V481.5L95 487.5H42Z" fill="#860001"/>
<path d="M138 487.5V339C161.085 337.051 173.238 335.784 192.5 333C192.5 333 197 332 202.5 331V481.5L192.5 487.5H138Z" fill="#860001"/>
<path d="M235.5 487.5V327L237.115 326.593C258.645 321.17 269.889 318.337 288 312.5C291.147 310.794 293.086 311.466 298 308V481.5L288 487.5H235.5Z" fill="#860001"/>
<path d="M330.5 487.5V298L382 271L393 263.5V481.5L382 487.5H330.5Z" fill="#860001"/>
<path d="M424.5 487.5V241.5C445.825 220.9 457.695 208.008 478.5 182.5L488.5 168.5V481.5L478.5 487.5H424.5Z" fill="#860001"/>
<path d="M435.5 89L407.5 81.5L415.5 95.5L431 100.5C432.498 97.5324 434.093 92.0324 435.5 89Z" fill="#860001"/>
<path d="M105 481.5V339H95V487.5L105 481.5Z" fill="black"/>
<path d="M192.5 333V487.5L202.5 481.5V331C197 332 192.5 333 192.5 333Z" fill="black"/>
<path d="M288 312.5V487.5L298 481.5V308C293 310.5 291.147 310.794 288 312.5Z" fill="black"/>
<path d="M382 271V487.5L393 481.5V263.5L382 271Z" fill="black"/>
<path d="M478.5 182.5V487.5L488.5 481.5V168.5L478.5 182.5Z" fill="black"/>
<path d="M36.5 315L26.5 300.5C242.5 291.5 384 210.5 433.5 90.5L407.5 81.5L484.5 12.5L494 25L515 128L487.5 118.5C393 300.5 163.5 320 36.5 315Z" fill="#DC1C23"/>
<path d="M26.5 300.5L36.5 315C163.5 320 393 300.5 487.5 118.5L515 128L494 25L484.5 12.5L504 113L477.5 104.5C406 230 283.34 307.384 26.5 300.5Z" fill="#860001"/>
</svg>
