<?xml version="1.0" encoding="utf-8"?>
<!-- Generator: Adobe Illustrator 28.3.0, SVG Export Plug-In . SVG Version: 6.00 Build 0)  -->
<svg version="1.1" id="Camada_1" xmlns="http://www.w3.org/2000/svg" xmlns:xlink="http://www.w3.org/1999/xlink" x="0px" y="0px"
	 width="408.5px" height="359.2px" viewBox="0 0 408.5 359.2" style="enable-background:new 0 0 408.5 359.2;" xml:space="preserve"
	>
<style type="text/css">
	.st0{fill:#FFFFFF;}
</style>
<g>
	<path class="st0" d="M190.5,184.4c18.5-18.5,36.1-36.2,53.8-53.9c31.7-31.7,63.4-63.4,95.1-95.1c9.8-9.8,19.8-9.8,29.7,0
		c7.6,7.5,15.2,15,22.6,22.6c9.2,9.5,9.4,19.7,0.1,29c-62.2,62.3-124.3,124.5-186.6,186.6c-9.1,9.1-19.5,9-28.6-0.1
		c-32.6-32.4-65.1-65-97.6-97.5c-9.1-9.1-9-19.5-0.1-28.6c7.8-8,15.7-15.9,23.7-23.7c8.9-8.7,19.3-8.7,28.2,0.2
		c18,17.8,35.8,35.8,53.7,53.7C186.5,179.7,188.2,181.9,190.5,184.4z"/>
	<path class="st0" d="M175.8,13.4c33.8,0,67.7-0.3,101.5,0.2c7.1,0.1,14.3,2.7,21.2,5c6.2,2.1,7.2,7.8,2.8,12.7
		c-0.5,0.6-1.2,1.1-1.7,1.8c-6.6,8.3-14.1,14-25.5,9.9c-1.5-0.5-3.3-0.2-5-0.2c-62.2,0-124.3,0.1-186.5,0c-16.3,0-29,6.2-36.2,21
		c-2.7,5.5-3.9,12.2-4,18.3c-0.3,62.8-0.2,125.7-0.1,188.5c0,19.4,10.1,33.5,27.5,38.3c4.3,1.2,8.9,1.4,13.3,1.5
		c62,0.1,124,0.1,186,0.1c20.3,0,34.7-10.1,39.3-28c1.1-4.1,1.3-8.6,1.3-12.9c0.1-17.3,0.1-34.7,0-52c0-4.3,1.1-7.7,4.3-10.6
		c4.1-3.7,7.8-7.7,11.7-11.6c2.5-2.5,5.4-3.9,9-2.5c3.6,1.5,4.7,4.4,4.6,8c-0.1,25.5,0.3,51-0.3,76.5c-0.8,32.9-29,61.4-61.9,62.5
		c-24.5,0.8-49,0.3-73.5,0.4c-40.8,0-81.7,0.1-122.5,0c-30.7-0.1-56.4-18-65.1-45.9c-2.1-6.9-3.2-14.4-3.2-21.6
		c-0.2-64-0.3-128-0.1-192c0.1-33.8,23.2-61,55.7-66.4c4.6-0.8,9.3-0.9,13.9-0.9c31.2-0.1,62.3,0,93.5,0
		C175.8,13.2,175.8,13.3,175.8,13.4z"/>
</g>
</svg>
