<svg width="500" height="500" viewBox="0 0 500 500" fill="none" xmlns="http://www.w3.org/2000/svg">
<path d="M94 349L78 418L155 408C376 505 561 256 376 91C212 -40 -23 163 94 349Z" fill="url(#paint0_linear_389_2)"/>
<g filter="url(#filter0_d_389_2)">
<path fill-rule="evenodd" clip-rule="evenodd" d="M69.9769 356.989L36.9679 459.836L150.558 430.729C334.049 542.308 588.413 314.298 417.543 94.0497C247.643 -94.18 -70.7968 119.276 69.9769 356.989ZM109.782 343.405L92.3066 406.472L157.354 389.978C345.699 502.528 522.395 265.785 386.475 116.366C251.438 -32.0836 -13.5165 137.711 109.782 343.405Z" fill="white"/>
</g>
<path d="M307.537 270.617C297.711 284.023 291.581 291.36 285.297 293.103C283.845 293.505 282.31 293.195 280.92 292.612C242.115 276.347 217.29 250.211 202.652 229.373C199.888 225.438 199.318 219.804 202.68 216.367C203.1 215.937 203.554 215.478 204.045 214.987C211.395 207.638 215.38 200.288 216.324 198.433C216.476 198.135 216.601 197.829 216.712 197.513L218.071 193.664C219.01 191.004 218.774 188.07 217.453 185.578C209.609 170.791 205.207 160.78 200.085 143.344C199.725 142.118 199.147 140.965 198.366 139.955C196.504 137.55 194.749 135.579 191.294 135.072L191.24 135.064C190.762 134.994 190.282 134.923 189.81 134.823C181.684 133.103 172.898 134.281 168.045 136.487C146.045 146.487 141.479 173.987 142.045 185.487C145.035 246.296 225.538 333.439 303.806 345.377C304.3 345.452 304.808 345.487 305.307 345.483C341.493 345.213 354.462 337.02 367.943 313.545C368.342 312.85 368.656 312.096 368.868 311.322C371.217 302.725 371.899 297.4 369.958 291.188C369.198 288.758 367.238 286.939 364.891 285.953L320.402 267.268C319.176 266.753 317.859 266.487 316.53 266.487H315.646C312.442 266.487 309.431 268.032 307.537 270.617Z" fill="white"/>
<defs>
<filter id="filter0_d_389_2" x="31" y="22" width="447" height="452" filterUnits="userSpaceOnUse" color-interpolation-filters="sRGB">
<feFlood flood-opacity="0" result="BackgroundImageFix"/>
<feColorMatrix in="SourceAlpha" type="matrix" values="0 0 0 0 0 0 0 0 0 0 0 0 0 0 0 0 0 0 127 0" result="hardAlpha"/>
<feOffset dy="10"/>
<feGaussianBlur stdDeviation="2"/>
<feComposite in2="hardAlpha" operator="out"/>
<feColorMatrix type="matrix" values="0 0 0 0 0 0 0 0 0 0 0 0 0 0 0 0 0 0 0.25 0"/>
<feBlend mode="normal" in2="BackgroundImageFix" result="effect1_dropShadow_389_2"/>
<feBlend mode="normal" in="SourceGraphic" in2="effect1_dropShadow_389_2" result="shape"/>
</filter>
<linearGradient id="paint0_linear_389_2" x1="104" y1="58" x2="389" y2="437" gradientUnits="userSpaceOnUse">
<stop stop-color="#54CF61"/>
<stop offset="0.46875" stop-color="#41C452" stop-opacity="0.56"/>
<stop offset="1" stop-color="#2BB741"/>
</linearGradient>
</defs>
</svg>
