<?xml version="1.0" encoding="utf-8"?>
<!-- Generator: Adobe Illustrator 28.3.0, SVG Export Plug-In . SVG Version: 6.00 Build 0)  -->
<svg version="1.1" id="Camada_1" xmlns="http://www.w3.org/2000/svg" xmlns:xlink="http://www.w3.org/1999/xlink" x="0px" y="0px"
	 width="500px" height="500px" viewBox="0 0 500 500" style="enable-background:new 0 0 500 500;" xml:space="preserve">
<style type="text/css">
	.st0{fill:#FFFFFF;}
</style>
<g>
	<path class="st0" d="M224.5,206.1c-46.8,0-93.5,0.1-140.3,0c-13.9,0-24.8,5.2-31.2,19.2c-8.4,18.5,2.8,41.6,21.7,44.8
		c3.9,0.6,7.8,0.8,11.8,0.8c92.6,0,185.2,0,277.9,0c0.9,0,1.9-0.2,2.8,0c2.1,0.5,5.1-1.6,6.1,1.6c0.9,2.6-2,3.7-3.3,5.1
		c-18,19.5-36,38.9-54,58.3c-12.4,13.4-25,26.7-37.2,40.4c-8.4,9.4-10.9,20.8-6.8,33.3c3.9,11.9,12.1,18.6,23.5,20.7
		c9.9,1.9,18.4-1.8,25.3-9.2c42.1-45.5,83.9-91.2,126.1-136.6c21.5-23.2,23-56.5,9.4-79.7c-3.1-5.3-7-9.9-11.1-14.3
		c-40.7-44.2-81.4-88.2-122.1-132.4c-7-7.6-15.2-12.1-25.4-11.3c-11.9,0.9-20.7,7.4-25.3,19.1c-5,12.7-2.6,24.8,6.2,34.7
		c11.6,13.2,23.8,25.9,35.7,38.8c18.8,20.3,37.6,40.7,56.4,61.1c1.2,1.3,3.7,2.2,2.7,4.6c-0.9,2.2-3.2,1.3-5,1.3
		c-47.9,0-95.9,0-143.8,0C224.5,206.2,224.5,206.1,224.5,206.1z"/>
</g>
</svg>
